<svg xmlns="http://www.w3.org/2000/svg" version="1.1" xmlns:xlink="http://www.w3.org/1999/xlink" xmlns:svgjs="http://svgjs.com/svgjs" width="15" height="15" x="0" y="0" viewBox="0 0 24 24" style="enable-background:new 0 0 512 512" xml:space="preserve" class=""><g><path d="M7 7.829v8.342A3.001 3.001 0 1 0 11 19a3.002 3.002 0 0 0-2-2.829V15h4a4 4 0 0 0 4-4V9.829A3.001 3.001 0 1 0 13 7c0 1.305.835 2.417 2 2.829V11a2 2 0 0 1-2 2H9V7.829A3.001 3.001 0 1 0 5 5c0 1.305.835 2.417 2 2.829zM8 18a1 1 0 1 1 0 2 1 1 0 0 1 0-2zm8-12a1 1 0 1 1 0 2 1 1 0 0 1 0-2zM8 4a1 1 0 1 1 0 2 1 1 0 0 1 0-2z" fill="#000000" data-original="#000000" class=""></path></g></svg>