<svg xmlns="http://www.w3.org/2000/svg" version="1.1" xmlns:xlink="http://www.w3.org/1999/xlink" xmlns:svgjs="http://svgjs.com/svgjs" width="15" height="15" x="0" y="0" viewBox="0 0 512.002 512.002" style="enable-background:new 0 0 512 512" xml:space="preserve" class=""><g><path d="M511.224 194.218a14.999 14.999 0 0 0-11.953-10.063l-158.925-24.126L269.579 8.267c-4.951-10.547-22.207-10.547-27.158 0l-70.767 151.762L12.73 184.155A15 15 0 0 0 .777 194.218a14.993 14.993 0 0 0 3.486 15.234L119.975 327.02 92.861 494.222a15.023 15.023 0 0 0 6.167 14.678c4.688 3.311 10.884 3.662 15.894.864l141.079-77.974 141.079 77.974c4.917 2.746 11.132 2.491 15.894-.864a15.023 15.023 0 0 0 6.167-14.678l-27.114-167.201 115.712-117.568a14.997 14.997 0 0 0 3.485-15.235z" fill="#000000" data-original="#000000" class=""></path></g></svg>